<?xml version="1.0" standalone="no"?>
<!DOCTYPE svg PUBLIC "-//W3C//DTD SVG 20010904//EN"
 "http://www.w3.org/TR/2001/REC-SVG-20010904/DTD/svg10.dtd">
<svg version="1.0" xmlns="http://www.w3.org/2000/svg"
 width="500.000000pt" height="493.000000pt" viewBox="0 0 500.000000 493.000000"
 preserveAspectRatio="xMidYMid meet">

<g transform="translate(0.000000,493.000000) scale(0.100000,-0.100000)"
fill="#000000" stroke="none">
<path d="M2645 4914 c-32 -8 -93 -33 -135 -55 -41 -23 -99 -50 -129 -60 -110
-38 -269 -35 -486 12 -49 10 -110 19 -135 19 -123 0 -227 -66 -351 -222 -146
-185 -145 -185 -222 -222 -39 -20 -133 -52 -207 -71 -162 -43 -199 -60 -272
-125 -110 -98 -146 -181 -157 -357 -11 -176 -28 -200 -259 -373 -190 -142
-228 -212 -220 -404 4 -89 8 -110 38 -176 32 -70 35 -82 34 -175 -1 -86 -5
-112 -32 -185 -113 -309 -113 -312 -108 -375 4 -40 18 -85 42 -135 30 -63 55
-93 150 -186 165 -162 165 -160 154 -509 -4 -129 -3 -143 17 -181 46 -87 128
-137 328 -204 142 -47 183 -90 294 -308 96 -188 151 -254 248 -300 56 -26 63
-27 198 -23 327 8 314 9 380 -25 33 -16 116 -70 185 -120 69 -49 154 -103 190
-119 59 -27 75 -30 165 -30 87 1 110 5 176 31 42 17 108 52 147 77 124 83 201
91 424 46 143 -30 270 -24 353 16 72 34 191 150 250 244 97 153 150 188 378
245 74 19 159 46 190 60 68 33 160 129 195 204 27 60 51 181 52 263 0 70 21
140 54 183 14 19 70 67 123 107 161 120 203 175 223 291 14 81 2 184 -36 294
-23 65 -28 97 -28 179 -1 119 14 175 86 327 57 123 68 189 48 290 -23 118 -61
177 -178 276 -62 52 -115 152 -137 257 -8 39 -19 137 -25 218 -12 181 -28 223
-109 300 -63 61 -115 90 -263 147 -158 62 -189 94 -264 275 -49 119 -82 169
-140 216 -95 76 -157 90 -399 89 l-190 0 -50 29 c-27 16 -90 64 -140 105 -109
93 -155 121 -231 141 -71 18 -140 18 -219 -1z m96 -224 c1034 -105 1858 -908
1994 -1944 8 -64 15 -191 15 -281 0 -586 -217 -1122 -624 -1543 -357 -368
-792 -592 -1301 -668 -149 -22 -452 -22 -606 0 -490 70 -937 292 -1279 635
-345 346 -560 774 -636 1266 -23 154 -23 460 0 620 71 478 272 890 604 1236
365 381 848 620 1372 678 110 12 343 13 461 1z"/>
<path d="M2290 4649 c-322 -33 -694 -165 -960 -339 -543 -356 -895 -908 -986
-1545 -22 -159 -22 -450 0 -600 111 -734 555 -1344 1211 -1666 310 -152 617
-222 970 -222 1073 1 1981 775 2160 1843 23 133 31 432 15 572 -23 214 -68
396 -145 589 -364 907 -1292 1468 -2265 1368z m448 -70 c404 -43 784 -200
1109 -456 101 -79 281 -264 362 -371 205 -271 337 -572 402 -917 27 -140 37
-446 20 -596 -72 -631 -409 -1185 -936 -1538 -544 -365 -1231 -455 -1854 -245
-321 108 -577 268 -822 513 -333 333 -532 727 -605 1196 -23 153 -24 453 0
600 39 248 92 417 196 630 321 658 951 1102 1680 1184 110 12 336 13 448 0z"/>
<path d="M2349 4423 c-8 -10 -30 -67 -49 -127 -22 -68 -42 -113 -55 -122 -18
-13 -15 -14 32 -14 53 0 78 14 43 23 -22 6 -25 23 -10 61 8 22 16 26 48 26 32
0 41 -5 50 -25 16 -36 15 -52 -5 -65 -14 -9 -7 -10 31 -6 27 3 58 6 70 6 20 0
20 0 -2 16 -12 8 -49 67 -80 130 -54 107 -59 114 -73 97z m31 -125 c0 -5 -14
-8 -31 -8 -27 0 -30 3 -24 23 4 12 9 31 12 41 5 17 8 15 24 -15 10 -19 18 -37
19 -41z"/>
<path d="M2757 4399 c-27 -16 -39 -54 -25 -84 6 -13 28 -36 49 -51 49 -34 59
-62 30 -85 -12 -10 -30 -15 -41 -12 -23 6 -60 49 -60 69 0 8 -5 14 -11 14 -7
0 -9 -9 -5 -22 3 -13 6 -30 6 -40 0 -9 13 -21 31 -27 73 -25 131 -5 145 51 5
24 -1 35 -51 82 -49 48 -55 57 -46 75 6 11 16 23 21 26 17 10 60 -23 60 -45 0
-11 5 -20 10 -20 19 0 11 59 -9 70 -25 13 -81 12 -104 -1z"/>
<path d="M2068 4376 c-52 -12 -73 -26 -39 -26 25 0 33 -18 56 -116 20 -85 19
-93 -7 -104 -34 -13 2 -13 60 1 53 13 78 29 44 29 -27 0 -35 17 -56 107 -21
93 -20 98 7 111 20 10 20 11 2 10 -11 0 -41 -5 -67 -12z"/>
<path d="M2971 4349 c-13 -37 -9 -46 9 -24 12 14 90 22 90 9 0 -16 -53 -180
-62 -191 -5 -6 -22 -13 -36 -15 -21 -2 -10 -8 45 -26 86 -27 92 -27 62 -3
l-23 18 30 99 c26 85 33 99 50 96 28 -5 54 -32 54 -56 0 -29 16 -7 24 33 5 26
3 32 -8 28 -11 -5 -149 34 -207 58 -12 5 -19 -2 -28 -26z"/>
<path d="M1870 4320 c-44 -18 -45 -18 -15 -21 26 -4 34 -13 62 -69 18 -36 32
-68 32 -72 1 -5 -50 17 -112 48 l-112 56 -40 -17 -40 -18 30 -6 c26 -5 33 -16
64 -93 33 -85 34 -88 16 -108 -23 -26 -8 -25 52 2 46 21 47 22 20 26 -24 3
-34 14 -59 68 -17 36 -28 68 -25 71 3 3 58 -20 123 -51 64 -31 118 -56 120
-56 10 0 1 33 -35 125 -29 73 -37 104 -30 117 12 22 6 22 -51 -2z"/>
<path d="M3285 4150 c-49 -43 -101 -80 -115 -82 -22 -3 -19 -7 28 -31 54 -28
77 -31 47 -7 -21 17 -19 33 9 59 23 22 24 22 60 4 35 -16 37 -19 31 -53 -9
-45 -14 -53 -31 -46 -8 3 -14 2 -14 -3 0 -8 90 -51 106 -51 3 0 1 7 -6 15 -10
12 -11 39 -1 128 6 62 11 121 11 130 0 33 -36 15 -125 -63z m70 -9 c-6 -38 -8
-40 -28 -30 -12 7 -24 13 -26 15 -3 3 8 18 24 34 16 16 30 28 33 26 2 -3 1
-23 -3 -45z"/>
<path d="M1449 4113 c-1 -10 0 -22 1 -28 22 -104 36 -223 29 -237 -13 -25 -6
-23 49 13 26 17 37 29 26 26 -30 -6 -43 4 -50 40 -5 26 -2 33 26 53 l32 23 26
-21 c15 -11 27 -29 26 -41 0 -11 1 -21 2 -21 10 0 94 56 94 63 0 5 -6 7 -12 4
-18 -6 -40 7 -139 80 -92 67 -108 74 -110 46z m86 -92 c2 -5 -6 -16 -20 -25
-27 -18 -30 -16 -39 38 l-7 38 30 -21 c17 -12 33 -26 36 -30z"/>
<path d="M3555 4100 l-27 -28 44 5 c32 4 47 1 57 -11 11 -13 5 -27 -45 -97
-57 -78 -60 -81 -93 -75 -18 3 -32 4 -30 2 24 -23 129 -94 129 -87 0 6 -4 13
-10 16 -5 3 -10 14 -10 24 0 17 92 155 112 167 6 4 22 -5 35 -20 17 -20 21
-34 17 -54 -8 -30 1 -25 26 15 l16 27 -73 49 c-40 27 -84 60 -97 72 l-25 23
-26 -28z"/>
<path d="M2390 4093 c-511 -48 -952 -309 -1232 -727 -112 -168 -193 -362 -240
-579 -20 -88 -23 -132 -23 -322 0 -191 3 -234 23 -322 112 -515 434 -925 897
-1148 449 -216 961 -216 1410 0 463 223 785 633 897 1148 20 88 23 131 23 322
0 190 -3 234 -23 322 -128 585 -531 1040 -1087 1228 -193 65 -454 97 -645 78z
m80 -565 c0 -5 -4 -8 -10 -8 -5 0 -10 -10 -10 -23 0 -13 -5 -28 -11 -34 -14
-14 -3 -46 14 -41 6 3 15 20 18 39 l6 34 2 -31 c1 -42 -23 -64 -46 -41 -13 13
-14 21 -6 39 23 46 23 73 3 86 -16 9 -20 9 -20 0 0 -9 -3 -9 -12 0 -15 15 -58
16 -58 2 0 -5 3 -9 8 -8 4 1 19 -9 34 -22 l27 -25 -42 -37 c-35 -31 -39 -39
-27 -47 8 -6 27 -8 43 -6 15 3 27 1 27 -5 0 -11 -11 -13 -52 -10 -16 1 -28 -4
-28 -11 0 -8 14 -10 45 -7 25 3 45 2 45 -3 0 -5 -18 -9 -40 -9 -23 0 -40 -5
-40 -11 0 -8 17 -10 52 -7 45 5 49 4 33 -8 -10 -8 -29 -12 -42 -10 -13 3 -23
0 -23 -5 0 -6 20 -9 45 -8 54 4 61 -14 8 -22 -34 -5 -31 -6 20 -8 66 -1 77
-18 15 -24 -40 -3 -39 -4 12 -5 46 -2 59 -7 87 -34 56 -54 50 -21 -6 36 -34
35 -52 60 -49 72 2 11 8 19 13 19 19 1 67 53 55 60 -7 4 -25 -7 -42 -24 -17
-17 -35 -31 -41 -31 -6 0 3 15 21 33 18 18 32 39 32 47 -1 9 -16 -2 -35 -24
-37 -42 -49 -36 -15 7 11 14 20 35 20 46 0 12 3 21 8 21 4 0 42 -37 86 -82 63
-67 70 -73 36 -28 -24 30 -59 76 -78 103 -36 46 -55 57 -65 37 -3 -6 -4 -5 -3
2 7 36 39 10 131 -107 53 -69 100 -125 104 -125 3 0 19 -12 34 -25 32 -29 28
-52 -6 -34 -21 12 -21 11 -4 -8 9 -11 17 -23 17 -26 0 -14 -28 -6 -45 13 -10
11 -21 18 -25 15 -4 -2 -33 18 -65 45 -100 85 -95 55 8 -45 53 -52 97 -98 97
-103 0 -5 -22 -10 -50 -11 -44 -1 -52 3 -72 29 -25 35 -38 38 -38 11 0 -11 -4
-23 -10 -26 -26 -16 -4 -25 59 -25 72 0 88 -8 83 -43 -2 -10 6 -21 20 -26 16
-7 18 -10 6 -10 -9 -1 -23 8 -31 19 -8 11 -25 20 -38 20 -42 0 -97 8 -108 15
-6 3 -16 3 -23 -1 -11 -7 -71 -12 -140 -13 -17 -1 -31 -9 -38 -21 -6 -12 -20
-19 -33 -19 l-22 2 23 4 c25 5 30 21 6 19 -9 0 -19 6 -21 14 -4 13 -3 13 6 0
5 -8 13 -11 17 -7 4 3 1 14 -7 23 -7 9 -15 35 -16 58 -2 22 -8 43 -13 44 -6 2
-10 25 -9 50 1 39 2 43 9 22 13 -40 11 -11 -5 80 -8 47 -15 101 -14 120 l1 35
9 -32 c12 -42 35 -58 25 -18 -28 113 -61 127 -54 23 3 -42 2 -62 -2 -48 -4 14
-8 49 -9 78 -1 40 2 52 14 52 17 0 41 -34 50 -72 4 -16 10 -28 14 -28 3 1 23
16 45 35 l38 34 -26 7 c-17 4 -25 12 -22 20 3 8 0 11 -11 7 -11 -4 -14 -1 -11
13 5 29 56 34 100 10 21 -12 38 -24 38 -28z m-192 -238 c0 -22 -1 -22 -8 5 -4
17 -8 41 -8 55 0 22 1 22 8 -5 4 -16 8 -41 8 -55z m-708 -89 c-14 -27 -12 -51
2 -26 22 40 47 46 41 10 -5 -23 -3 -24 26 -15 36 10 41 -2 9 -18 -21 -11 -19
-12 12 -7 19 3 29 2 23 -1 -19 -8 -16 -35 2 -28 8 4 15 1 15 -5 0 -6 -9 -11
-20 -11 -27 0 -25 -14 3 -28 64 -33 77 -47 77 -81 0 -20 -4 -23 -30 -19 -28 4
-29 4 -13 -14 15 -17 15 -18 -10 -18 -41 0 -33 -25 16 -49 24 -12 48 -21 53
-21 6 0 28 -17 50 -39 l40 -38 30 26 c16 15 37 39 47 55 18 27 19 28 95 21 42
-3 89 -8 103 -11 22 -4 27 0 35 28 7 25 18 36 44 44 19 6 37 21 41 33 5 11 14
21 21 21 9 0 10 -3 2 -8 -6 -4 -14 -17 -18 -29 -5 -15 -15 -23 -29 -23 -31 0
-44 -11 -52 -41 -8 -32 22 -47 82 -41 38 4 42 6 48 39 3 20 19 49 35 65 24 24
36 28 83 28 40 0 56 4 61 15 3 8 16 15 30 15 13 0 26 -7 30 -15 4 -11 21 -15
58 -15 35 0 60 -6 74 -18 24 -19 54 -73 54 -95 0 -19 75 -28 108 -14 17 8 21
16 16 31 -10 32 -24 46 -48 46 -13 0 -28 12 -38 30 -9 17 -14 30 -9 30 4 0 13
-11 19 -24 6 -14 22 -26 40 -29 24 -5 33 -14 42 -42 10 -31 16 -36 34 -31 11
4 58 9 103 11 81 4 83 4 100 -23 10 -14 31 -38 48 -53 l29 -27 46 39 c26 22
50 39 55 39 25 0 85 37 85 53 0 14 -5 17 -20 12 -25 -8 -27 12 -2 32 15 13 15
13 -5 4 -35 -17 -43 -13 -43 22 0 25 6 36 23 44 29 14 107 78 85 70 -12 -4
-15 -2 -12 8 3 7 -2 15 -13 18 -14 4 -13 5 5 6 18 1 22 5 18 19 -5 16 -2 18
25 14 27 -4 31 -2 26 12 -8 19 4 21 22 4 11 -11 13 -10 8 5 -8 21 6 22 23 2 8
-10 17 -12 22 -7 12 12 50 3 42 -9 -3 -5 8 -9 25 -9 23 0 29 -4 25 -15 -4 -8
-1 -15 6 -15 6 0 8 -4 5 -10 -3 -5 -1 -10 4 -10 6 0 11 -7 11 -15 0 -7 6 -18
14 -22 22 -13 38 -54 42 -107 3 -42 2 -47 -6 -27 -16 37 -20 21 -8 -33 8 -38
7 -56 -5 -85 -9 -20 -19 -49 -23 -66 l-7 -30 -7 30 -8 30 -1 -27 c-1 -16 -9
-32 -21 -38 -11 -6 -20 -20 -20 -31 0 -12 -5 -19 -12 -16 -8 2 -20 -11 -29
-31 l-15 -36 -22 22 c-27 27 -32 27 -32 5 0 -15 -2 -16 -10 -3 -5 8 -10 10
-10 5 0 -14 59 -86 85 -104 11 -8 44 -38 73 -68 29 -29 56 -53 60 -53 4 0 14
21 22 48 12 36 20 48 39 50 57 8 78 -12 95 -90 4 -17 18 -34 36 -43 18 -9 32
-26 36 -43 4 -15 15 -44 25 -64 22 -43 24 -84 8 -125 l-12 -28 -6 24 c-10 37
-28 37 -23 1 3 -21 12 -34 28 -40 13 -5 24 -17 24 -27 -1 -17 -1 -17 -11 0
-11 19 -45 23 -51 5 -9 -25 -29 5 -27 40 2 33 -5 44 -55 97 -67 71 -78 93 -70
144 4 26 2 41 -7 46 -18 12 -59 -40 -59 -74 0 -16 -9 -50 -21 -76 -25 -57 -19
-105 15 -133 22 -17 24 -27 27 -126 3 -69 0 -109 -7 -114 -6 -4 -14 -19 -18
-34 -5 -21 -3 -26 8 -22 8 3 16 15 19 26 6 23 25 20 41 -5 9 -13 3 -24 -31
-57 -23 -22 -51 -40 -63 -40 -12 0 -20 -7 -20 -16 0 -12 -7 -14 -32 -9 -18 4
-44 13 -58 20 -20 11 -26 10 -35 -1 -6 -8 -23 -16 -37 -17 -15 -1 -27 -6 -26
-12 2 -12 77 -39 85 -31 9 8 43 -13 43 -27 0 -13 -83 -16 -111 -3 -9 4 -21 1
-29 -9 -7 -8 -19 -15 -26 -15 -8 0 -14 -11 -14 -27 0 -24 -24 -63 -39 -63 -3
0 -7 24 -8 53 -1 40 3 57 19 74 13 13 18 28 14 41 -5 14 1 24 20 37 17 11 24
23 21 36 -4 16 -1 16 27 -6 40 -30 56 -32 56 -4 0 20 1 20 31 -5 17 -14 37
-26 44 -26 7 0 22 -3 32 -7 17 -6 17 -6 0 14 -19 21 -18 21 24 16 30 -4 40 -3
35 5 -4 7 0 12 10 12 10 0 14 3 11 7 -4 4 7 13 24 20 20 8 29 19 27 30 -5 24
-28 28 -28 5 0 -48 -104 -48 -205 -1 l-43 20 -94 -94 c-153 -154 -257 -190
-358 -123 -22 14 -52 44 -66 66 -35 53 -62 53 -99 -1 -40 -57 -126 -133 -182
-160 -57 -28 -162 -37 -231 -19 -71 17 -135 64 -206 149 -58 69 -68 77 -93 73
-20 -3 -37 -18 -59 -50 -38 -57 -100 -92 -164 -92 -64 0 -134 37 -219 117 -44
39 -71 59 -71 49 0 -8 11 -23 25 -32 17 -11 24 -22 20 -35 -4 -11 2 -26 16
-40 16 -16 22 -35 23 -75 1 -30 -1 -54 -3 -54 -14 0 -51 47 -51 65 0 26 -49
57 -71 45 -15 -9 -109 -9 -109 0 1 15 18 28 45 33 17 4 45 9 63 13 35 7 39 28
5 30 -35 2 -53 12 -53 30 0 15 -2 16 -17 2 -10 -9 -28 -18 -40 -22 -13 -3 -32
-9 -43 -12 -14 -4 -20 -1 -20 10 0 10 -9 16 -22 16 -29 0 -101 73 -96 97 5 26
38 29 45 5 3 -12 11 -23 19 -26 17 -7 7 54 -12 69 -11 8 -11 24 -4 75 5 36 7
81 4 101 -5 30 -1 40 25 66 35 36 40 76 16 123 -9 16 -18 51 -22 77 -6 43 -32
82 -55 83 -14 0 -9 -27 7 -40 17 -14 21 -85 5 -75 -5 3 -10 -1 -10 -9 0 -9 -5
-15 -11 -13 -6 1 -19 -14 -30 -33 -10 -19 -19 -28 -19 -20 0 8 -14 -5 -30 -30
-16 -25 -34 -52 -40 -60 -5 -8 -14 -27 -20 -42 -16 -46 -65 -37 -83 15 -6 15
-3 17 14 12 19 -7 20 -5 6 22 -15 29 -12 88 5 111 7 8 7 12 -1 12 -8 0 -8 5
-1 18 5 9 14 29 20 45 6 16 24 34 44 44 30 14 36 23 42 61 8 53 33 82 72 82
40 0 54 -13 61 -56 8 -48 30 -55 53 -16 10 16 42 46 72 67 64 44 120 117 113
146 -4 16 -3 18 9 9 11 -10 23 -6 59 14 46 28 66 52 58 74 -6 15 9 16 24 1 7
-7 19 1 42 28 17 21 30 42 28 48 -9 26 -42 13 -101 -42 -34 -33 -77 -65 -94
-72 -21 -9 -33 -22 -37 -42 -7 -33 -8 -33 -37 -18 -15 8 -19 8 -14 0 14 -22
-13 -10 -32 14 -19 24 -40 36 -27 15 3 -5 4 -10 0 -10 -3 0 -14 15 -25 33 -11
17 -20 28 -20 22 -1 -16 -40 67 -40 84 0 9 -7 25 -15 35 -30 40 -4 147 42 176
17 10 16 10 -2 8 -11 -2 -24 -13 -30 -26 -5 -12 -14 -22 -19 -22 -13 0 2 61
20 81 10 11 12 19 5 24 -6 3 -11 11 -11 17 0 7 5 6 14 -2 11 -8 20 -9 33 -1
10 6 13 11 6 11 -7 0 -17 9 -23 21 -10 18 -9 19 7 11 13 -7 28 -6 51 4 23 9
40 10 57 4 18 -7 25 -6 25 2 0 14 30 48 42 48 5 0 4 -9 -2 -19z"/>
<path d="M2343 3187 c-1 -34 -6 -74 -12 -90 -10 -25 -9 -27 12 -24 12 2 16 2
10 0 -25 -9 -12 -23 15 -17 33 8 41 15 24 21 -10 4 -8 9 7 20 12 8 26 11 33 7
6 -4 17 1 24 11 11 15 9 25 -12 67 -23 45 -52 68 -87 68 -8 0 -13 -22 -14 -63z"/>
<path d="M2477 3232 c-24 -2 -37 -8 -34 -15 3 -7 10 -11 17 -9 7 1 18 -5 26
-15 9 -13 13 -14 14 -4 0 11 3 11 15 1 12 -10 15 -10 14 1 -1 34 -14 44 -52
41z"/>
<path d="M2510 3128 c0 -9 -6 -19 -12 -21 -10 -4 -10 -6 0 -6 14 -1 28 26 18
36 -3 4 -6 -1 -6 -9z"/>
<path d="M2588 3073 c6 -2 18 -2 25 0 6 3 1 5 -13 5 -14 0 -19 -2 -12 -5z"/>
<path d="M2630 3072 c0 -4 16 -9 36 -10 23 -2 33 1 29 8 -7 12 -65 14 -65 2z"/>
<path d="M1605 3080 c3 -5 8 -10 11 -10 2 0 4 5 4 10 0 6 -5 10 -11 10 -5 0
-7 -4 -4 -10z"/>
<path d="M3435 3080 c-3 -5 1 -10 10 -10 9 0 13 5 10 10 -3 6 -8 10 -10 10 -2
0 -7 -4 -10 -10z"/>
<path d="M1579 3041 c34 -26 81 -53 81 -47 0 7 -87 66 -97 66 -4 0 3 -9 16
-19z"/>
<path d="M3441 3025 c-19 -14 -40 -26 -45 -28 -6 -3 -9 -7 -6 -9 3 -3 27 10
55 28 27 19 45 34 40 34 -6 -1 -26 -12 -44 -25z"/>
<path d="M1670 2970 c-1 -19 -4 -27 -7 -17 -5 18 -47 24 -58 8 -6 -10 34 -37
48 -33 21 6 -21 -105 -58 -154 -15 -20 -25 -38 -22 -41 4 -3 20 17 37 43 36
57 74 172 67 206 -3 17 -5 14 -7 -12z"/>
<path d="M3377 2950 c6 -55 36 -137 69 -185 14 -21 23 -39 20 -42 -10 -10 -74
33 -122 83 -55 57 -65 62 -83 40 -10 -11 -6 -22 20 -50 17 -20 35 -33 40 -30
5 3 9 0 9 -5 0 -6 5 -11 11 -11 5 0 7 5 3 12 -4 6 -3 8 4 5 5 -4 8 -15 6 -25
-3 -12 8 -25 39 -44 24 -16 51 -28 60 -28 25 0 33 48 13 79 -30 45 -66 126
-72 162 -4 23 -3 30 4 20 7 -10 14 -11 31 -2 11 7 21 16 21 21 0 15 -40 22
-55 10 -11 -9 -14 -6 -18 12 -2 13 -2 3 0 -22z"/>
<path d="M2403 2965 c-39 -17 -55 -45 -51 -93 2 -27 -1 -36 -11 -34 -7 2 -22
-5 -32 -14 -18 -16 -20 -16 -32 1 -13 16 -16 15 -52 -16 -63 -55 -89 -148 -42
-150 20 -1 20 -2 2 -6 -76 -18 -4 -23 336 -23 l376 1 -8 49 c-10 61 -30 101
-70 134 -29 25 -33 26 -49 11 -15 -14 -18 -14 -30 0 -7 8 -20 14 -29 13 -12
-2 -15 4 -14 29 4 49 -13 82 -50 98 -34 14 -77 10 -77 -7 0 -5 -10 -8 -22 -7
-13 2 -29 -1 -37 -5 -9 -6 -18 -4 -25 6 -17 23 -48 28 -83 13z m134 -100 c6
-14 7 -25 2 -25 -5 0 -9 -4 -9 -10 0 -5 6 -10 14 -10 10 0 15 -15 18 -49 1
-27 0 -47 -4 -44 -5 2 -8 22 -8 44 0 35 -3 39 -24 39 -15 0 -26 -7 -29 -17 -4
-14 -5 -12 -6 5 -1 13 5 22 14 22 8 0 15 5 15 10 0 6 -5 10 -10 10 -7 0 -7 6
0 19 8 16 6 20 -8 24 -14 4 -14 5 3 6 12 0 25 -9 32 -24z m-76 -35 c5 0 9 -12
8 -27 0 -16 -3 -22 -6 -15 -2 6 -16 12 -29 12 -19 0 -24 -5 -24 -26 0 -23 3
-25 32 -22 32 3 33 2 30 -34 -4 -44 9 -50 27 -12 10 22 9 28 -6 39 -10 8 -14
17 -10 22 5 4 13 0 18 -10 6 -9 15 -17 22 -17 7 0 18 -9 25 -20 10 -17 15 -18
26 -8 8 7 12 16 9 21 -2 4 7 7 20 7 27 0 43 25 24 37 -23 14 -38 11 -47 -10
-5 -12 -9 -16 -9 -9 -1 8 7 27 16 43 16 26 16 31 3 39 -13 8 -12 10 3 10 9 0
17 -7 17 -16 0 -9 8 -27 19 -40 16 -21 20 -22 31 -9 21 25 38 18 32 -12 -4
-20 -7 -23 -10 -10 -5 23 -24 17 -39 -14 -8 -15 -9 -27 -3 -33 6 -6 10 -14 10
-18 0 -11 -23 -6 -32 7 -5 6 -8 4 -8 -6 0 -11 11 -15 43 -16 23 0 36 2 30 4
-17 6 -17 28 0 41 19 16 44 -2 29 -21 -7 -8 -10 -21 -6 -30 3 -8 1 -18 -4 -21
-5 -3 -83 -6 -172 -7 l-162 -1 -39 38 c-44 43 -48 54 -19 54 23 0 78 47 111
95 21 30 24 32 27 15 2 -11 8 -20 13 -20z"/>
<path d="M2382 2755 c-16 -34 -15 -75 1 -75 7 0 13 18 14 50 2 28 1 50 0 50
-2 0 -9 -11 -15 -25z"/>
<path d="M2358 2750 c-7 -11 -24 -20 -37 -20 l-24 0 23 -25 c29 -31 42 -32 39
-2 -2 12 3 32 9 45 16 27 7 29 -10 2z"/>
<path d="M2404 2725 c-10 -25 4 -45 31 -45 21 0 25 5 25 30 0 25 -4 30 -25 30
-14 0 -28 -7 -31 -15z"/>
<path d="M2685 2710 c-3 -5 -1 -10 4 -10 6 0 11 5 11 10 0 6 -2 10 -4 10 -3 0
-8 -4 -11 -10z"/>
<path d="M1361 2884 c0 -11 3 -14 6 -6 3 7 2 16 -1 19 -3 4 -6 -2 -5 -13z"/>
<path d="M1994 2822 c-12 -15 -29 -45 -38 -67 -10 -22 -26 -50 -37 -62 l-21
-21 24 -15 c12 -8 39 -18 59 -21 39 -7 43 -13 69 -106 28 -104 24 -204 -8
-198 -9 2 -22 14 -29 28 -10 21 -10 27 1 36 12 8 13 24 6 78 -9 76 -31 110
-64 100 -11 -4 -39 -7 -62 -8 -37 -1 -49 -8 -117 -73 l-76 -72 32 -3 32 -3 0
-89 0 -90 75 -23 c56 -18 82 -32 102 -56 15 -18 28 -35 28 -39 0 -4 19 -25 41
-46 36 -33 42 -45 46 -89 6 -60 -13 -96 -59 -112 -36 -13 -65 -1 -78 32 -7 19
-9 17 -9 -14 -1 -49 30 -77 84 -73 22 1 47 -2 55 -7 10 -5 0 -7 -27 -4 -26 3
-43 1 -43 -5 0 -16 -58 17 -70 39 -15 29 -12 77 5 91 13 10 15 9 15 -8 0 -30
28 -54 54 -47 58 17 83 93 51 155 -25 48 -62 70 -119 70 -71 -1 -130 -30 -203
-102 l-62 -61 62 -70 c83 -94 165 -147 226 -147 25 1 57 7 70 14 23 13 22 13
-19 20 -63 10 -120 69 -120 123 0 26 8 50 21 67 34 43 89 30 89 -23 0 -23 1
-24 20 -6 24 21 26 65 6 104 -27 52 -105 67 -163 31 -27 -16 -33 -26 -33 -54
0 -19 6 -36 13 -39 9 -3 7 -9 -5 -24 -13 -14 -15 -22 -7 -30 8 -8 5 -14 -11
-23 -17 -9 -26 -8 -45 4 -13 9 -32 13 -41 9 -10 -3 -15 -2 -12 3 3 5 11 28 17
52 7 23 16 42 22 42 6 0 6 -7 -1 -19 -16 -31 -11 -55 15 -74 30 -22 50 -14 35
13 -8 14 -5 19 12 23 18 5 19 9 9 21 -7 8 -11 29 -9 48 6 63 118 103 176 62
51 -35 68 -118 32 -154 -24 -24 -43 -25 -61 -3 -12 15 -12 16 4 10 15 -6 18
-3 15 16 -2 15 -11 23 -30 25 -34 4 -58 -29 -58 -82 0 -31 7 -45 35 -71 42
-40 78 -49 161 -40 65 7 79 24 21 26 -30 0 -30 1 13 15 25 8 52 15 60 15 233
1 252 -3 313 -70 l37 -41 37 41 c56 62 79 70 192 68 54 -1 102 0 107 3 5 3 34
-3 64 -13 37 -12 47 -18 30 -18 -14 -1 -31 -5 -38 -10 -14 -8 52 -21 110 -21
98 0 172 108 122 178 -22 31 -68 27 -72 -7 -3 -16 0 -21 8 -16 8 5 11 3 8 -6
-7 -22 -35 -22 -57 0 -15 15 -21 34 -21 62 0 34 6 47 35 76 33 33 39 35 86 31
64 -7 103 -34 107 -77 2 -18 -2 -39 -9 -47 -10 -12 -8 -16 10 -21 17 -4 19 -8
10 -20 -22 -25 5 -38 35 -17 28 21 32 44 15 76 -8 14 -8 18 0 14 6 -4 15 -25
21 -47 l11 -41 20 23 c10 12 19 25 19 28 0 4 -24 30 -52 58 -65 64 -126 92
-196 93 -46 0 -57 -4 -89 -33 -31 -29 -37 -41 -41 -89 -4 -51 -2 -56 28 -81
17 -15 38 -27 45 -27 20 0 45 29 45 52 0 17 2 18 15 8 18 -15 19 -69 2 -91
-21 -27 -70 -55 -74 -42 -3 7 -18 10 -41 7 -26 -4 -33 -2 -22 4 8 6 33 9 55 8
50 -3 85 24 85 67 l0 30 -25 -27 c-28 -30 -36 -31 -75 -11 -38 19 -50 43 -50
96 0 48 28 99 65 119 14 7 25 19 25 26 0 27 75 80 134 94 78 19 90 37 77 121
-13 77 -4 92 48 83 l36 -7 -50 40 c-27 22 -64 55 -81 75 -26 30 -39 36 -85 41
-30 3 -60 7 -67 9 -23 5 -54 -47 -56 -94 -1 -23 -5 -48 -9 -55 -4 -7 0 -16 10
-22 24 -13 6 -66 -22 -66 -17 0 -21 9 -26 60 -4 34 -2 70 3 85 6 14 18 52 27
85 16 59 17 60 61 70 25 5 54 15 65 22 20 11 20 12 -2 35 -12 13 -31 46 -43
73 -36 84 -59 97 -149 79 -31 -6 -44 -34 -17 -34 27 0 46 -30 46 -73 0 -28 7
-48 22 -64 22 -23 22 -24 4 -58 -13 -24 -17 -44 -12 -67 4 -23 3 -29 -4 -18
-15 23 -12 55 8 90 17 30 16 31 -5 48 -16 13 -23 30 -25 67 -3 43 -7 52 -30
63 -16 7 -28 20 -28 30 0 10 -3 13 -10 6 -6 -6 0 -29 18 -64 23 -47 27 -68 27
-140 0 -71 -4 -93 -26 -137 -21 -42 -23 -53 -11 -58 19 -7 32 2 32 23 1 17 50
61 50 45 0 -5 -9 -14 -20 -21 -11 -7 -20 -19 -20 -27 0 -7 -12 -27 -26 -42
-24 -26 -27 -27 -38 -10 -17 23 -33 22 -46 -4 -13 -23 -6 -69 10 -69 6 0 10
-7 10 -16 0 -12 -6 -15 -25 -10 -23 6 -25 4 -25 -26 0 -34 13 -63 27 -63 4 0
16 -5 26 -11 16 -9 17 -17 9 -60 l-10 -49 -1 49 c-1 37 -4 47 -12 39 -9 -9
-18 -8 -35 4 -23 14 -24 14 -24 -6 0 -81 -126 -151 -200 -111 -15 8 -18 7 -14
-4 6 -17 -35 -29 -70 -20 -17 4 -23 11 -19 21 5 13 3 14 -17 3 -62 -33 -171
18 -190 90 -10 36 -12 39 -30 27 -25 -15 -28 -67 -4 -67 8 0 20 -13 25 -30 9
-24 17 -30 38 -30 16 0 36 -9 47 -21 13 -14 25 -18 42 -14 15 4 34 -1 49 -10
20 -13 31 -14 55 -6 23 8 40 8 64 -1 28 -10 36 -9 52 6 13 11 28 15 45 11 18
-5 31 -1 46 14 12 12 32 21 46 21 15 0 28 7 32 18 7 20 63 75 63 62 0 -5 -11
-17 -25 -26 -14 -9 -25 -24 -25 -33 1 -14 2 -14 14 2 16 21 26 22 26 1 0 -8
-4 -13 -9 -9 -5 3 -12 1 -16 -5 -4 -6 -10 -8 -15 -5 -5 3 -11 1 -15 -5 -3 -5
-16 -10 -29 -10 -13 0 -31 -9 -42 -21 -14 -15 -26 -19 -48 -15 -20 4 -35 1
-48 -11 -16 -14 -24 -15 -52 -5 -24 9 -41 9 -65 1 -25 -9 -36 -8 -56 5 -15 10
-35 14 -48 11 -16 -4 -29 0 -41 14 -11 12 -32 21 -48 21 -24 0 -32 6 -41 29
-6 16 -19 32 -29 34 -12 4 -18 15 -18 35 0 17 -5 34 -11 38 -7 4 -2 14 15 28
17 13 29 35 33 59 l6 37 -32 -6 c-24 -5 -31 -3 -31 9 0 8 7 17 15 21 18 7 20
57 3 74 -17 17 -38 15 -38 -3 0 -8 -6 -15 -14 -15 -16 0 -46 42 -46 63 0 8
-11 22 -25 31 -17 12 -25 25 -24 44 l2 27 4 -28 c2 -15 13 -32 24 -38 11 -5
24 -21 29 -35 5 -13 14 -24 19 -24 21 0 21 21 -1 62 -19 36 -23 58 -23 138 0
85 3 100 27 144 26 46 29 66 7 66 -5 0 -9 -9 -9 -19 0 -12 -9 -21 -25 -25 -25
-6 -29 -17 -26 -71 1 -20 -5 -37 -18 -50 -25 -21 -27 -48 -6 -65 8 -7 14 -22
14 -34 -1 -19 -2 -19 -6 -2 -3 11 -11 26 -19 34 -20 19 -17 46 7 68 15 13 19
27 16 49 -6 40 7 72 32 80 28 8 27 31 -1 39 -52 13 -92 6 -114 -22z m112 -474
c-6 -30 -5 -31 8 -13 9 11 16 14 16 8 0 -7 -9 -22 -20 -33 -14 -14 -20 -34
-20 -62 -1 -40 -2 -42 -15 -24 -8 11 -15 25 -15 30 0 6 5 4 11 -4 8 -11 9 1 5
45 -4 36 -3 55 3 47 6 -10 10 -7 15 12 9 37 20 32 12 -6z m814 3 c5 -11 10
-26 9 -33 0 -7 -5 0 -11 16 -8 21 -13 25 -19 15 -7 -11 -9 -10 -9 4 0 23 17
22 30 -2z m-13 -43 c-3 -8 -6 -5 -6 6 -1 11 2 17 5 13 3 -3 4 -12 1 -19z m-23
-63 c-4 -24 -3 -26 5 -10 8 16 10 13 10 -20 0 -39 0 -40 -14 -15 -14 26 -19
113 -4 89 4 -7 6 -27 3 -44z m46 -15 c0 -26 3 -31 10 -20 7 11 10 12 10 2 0
-7 -7 -20 -15 -28 -8 -9 -15 -24 -15 -34 0 -13 -6 -18 -19 -15 -15 3 -20 -4
-24 -28 -8 -53 9 -54 62 -4 53 50 64 56 54 32 -3 -9 -8 -13 -11 -11 -3 3 -27
-14 -53 -39 -60 -56 -74 -58 -65 -7 3 20 6 44 6 53 0 9 12 22 26 30 24 13 26
17 22 71 -2 32 -1 53 4 46 4 -7 8 -29 8 -48z m70 36 c0 -13 -9 -34 -21 -47
l-21 -24 16 25 c23 35 20 46 -6 24 -20 -17 -20 -16 2 13 30 39 30 39 30 9z
m-837 -58 c7 -47 3 -48 -19 -2 -12 26 -19 32 -25 22 -5 -7 -9 -8 -9 -3 0 6 8
21 17 34 15 23 17 23 23 5 4 -10 10 -36 13 -56z m-178 52 c-3 -5 -12 -7 -20
-3 -21 7 -19 13 6 13 11 0 18 -4 14 -10z m40 -10 c4 -6 -1 -7 -12 -3 -16 6
-16 5 -4 -10 7 -9 17 -15 21 -12 4 2 16 -5 26 -18 16 -18 16 -19 2 -8 -10 7
-18 10 -18 5 0 -4 -11 3 -25 16 -13 12 -22 27 -19 31 7 12 21 11 29 -1z m81
-64 c-7 -27 19 -122 36 -132 6 -4 8 -3 5 4 -4 5 -3 21 2 34 7 20 9 16 12 -24
3 -30 1 -44 -5 -38 -19 19 -29 10 -11 -10 10 -11 22 -17 26 -14 5 3 12 -2 15
-10 3 -9 13 -16 20 -16 12 0 12 5 -2 28 l-16 27 22 -28 c13 -16 32 -32 44 -37
12 -5 -10 -6 -52 -3 -57 5 -76 3 -83 -8 -14 -22 -11 -33 5 -20 8 7 32 11 53 8
l38 -4 -41 -1 c-45 -2 -55 -10 -73 -57 -10 -28 -10 -26 -5 15 9 64 20 80 55
80 l31 0 -31 26 c-17 14 -29 29 -26 34 2 4 -4 15 -15 25 -11 10 -17 22 -14 27
3 5 0 16 -8 25 -9 12 -9 15 0 9 17 -10 15 5 -5 33 -9 14 -12 21 -5 18 6 -4 13
2 17 13 9 28 18 25 11 -4z m21 -43 c-2 -16 -4 -5 -4 22 0 28 2 40 4 28 2 -13
2 -35 0 -50z m65 -15 c0 -13 0 -31 0 -41 -1 -10 2 -16 7 -13 4 3 13 -6 19 -19
8 -16 8 -25 1 -25 -5 0 -12 7 -16 16 -5 13 -8 13 -15 2 -6 -9 -8 -2 -7 22 3
54 0 72 -11 65 -5 -3 -10 -1 -10 4 0 22 30 10 32 -11z m758 14 c0 -5 -13 -18
-29 -30 -28 -20 -29 -20 -24 -2 3 11 9 17 14 14 5 -3 12 2 15 10 6 17 24 22
24 8z m-930 -24 c0 -5 4 -6 10 -3 11 7 54 -14 46 -23 -4 -3 4 -17 16 -31 l23
-26 -27 24 c-15 13 -25 29 -21 34 4 6 0 8 -11 4 -11 -4 -15 -3 -11 4 4 6 1 9
-6 8 -19 -4 -59 10 -59 21 0 4 9 6 20 3 11 -3 20 -10 20 -15z m948 -30 c-8
-12 -20 -24 -26 -26 -7 -2 -2 8 11 22 27 32 34 33 15 4z m-683 -79 c33 -40 92
-90 109 -93 23 -3 56 -37 49 -50 -3 -6 -2 -8 2 -3 5 4 17 0 27 -10 10 -9 18
-12 18 -7 0 12 -72 84 -85 84 -6 0 -31 21 -55 46 -43 45 -42 44 30 -13 41 -34
84 -70 94 -82 11 -11 24 -21 29 -21 14 0 117 90 117 102 0 6 -5 7 -13 2 -7 -5
-4 -1 6 9 24 21 32 16 18 -11 -8 -15 -8 -22 2 -25 9 -4 8 -8 -3 -16 -9 -6 -17
-6 -20 0 -4 5 -15 1 -25 -11 -10 -11 -16 -20 -14 -20 15 0 111 39 97 40 -10 0
-18 4 -18 10 0 5 6 7 13 4 16 -6 59 38 55 56 -2 7 3 15 11 18 8 3 12 -1 9 -9
-3 -8 7 -19 20 -26 20 -11 28 -11 40 -1 9 7 13 8 9 2 -4 -7 7 -11 30 -12 20
-1 39 -4 42 -8 3 -3 -15 -5 -41 -3 -27 3 -48 2 -48 -2 0 -3 -25 -13 -56 -23
-31 -10 -54 -19 -52 -22 9 -8 107 9 105 19 -1 5 4 12 12 15 10 3 12 0 8 -11
-3 -9 -1 -18 6 -21 7 -2 -13 -5 -43 -5 -64 -1 -52 -20 15 -22 33 -2 35 -3 11
-6 -16 -3 -53 3 -81 11 -47 15 -54 15 -89 1 -21 -9 -47 -13 -59 -10 -21 6 -21
6 -2 -6 27 -17 48 -39 38 -39 -5 0 -14 5 -20 11 -14 14 -59 7 -56 -8 2 -8 -4
-10 -15 -6 -15 6 -14 3 3 -18 l20 -24 -21 18 c-19 16 -23 16 -34 2 -7 -8 -17
-15 -23 -15 -5 0 -2 9 7 19 20 22 14 28 -43 37 -29 5 -38 10 -29 15 7 5 22 6
33 3 36 -9 -9 20 -79 52 -59 27 -65 33 -82 79 -26 67 -27 73 -13 50 7 -11 22
-32 34 -46z m535 37 c0 -8 -11 -28 -25 -43 l-24 -28 -1 32 c0 17 4 34 9 37 4
3 6 -7 4 -22 -4 -26 -4 -26 11 -8 9 11 16 26 16 33 0 7 2 13 5 13 3 0 5 -6 5
-14z m34 -1 c3 -8 -2 -21 -10 -30 -19 -18 -28 -20 -17 -2 4 6 6 20 5 30 -4 21
14 23 22 2z m42 -30 c9 -8 11 -15 6 -15 -6 0 -19 -3 -29 -6 -15 -5 -15 -4 -3
5 11 8 12 11 2 11 -7 0 -10 5 -7 10 8 14 14 13 31 -5z m44 -4 c0 -5 -8 -15
-17 -22 -16 -12 -17 -12 -6 2 7 9 10 19 6 22 -3 4 -1 7 5 7 7 0 12 -4 12 -9z
m-240 -14 c0 -2 -10 -12 -22 -23 l-23 -19 19 23 c18 21 26 27 26 19z m-424
-66 c-3 -5 -15 -7 -26 -4 -28 7 -25 13 6 13 14 0 23 -4 20 -9z m74 -27 c25
-13 34 -22 20 -18 -14 4 -34 8 -45 8 -11 1 -19 8 -17 15 2 9 -3 11 -13 7 -9
-3 -13 -2 -10 4 9 14 14 13 65 -16z m515 -4 c-3 -5 -13 -10 -21 -10 -8 0 -14
5 -14 10 0 6 9 10 21 10 11 0 17 -4 14 -10z m-194 -13 c-1 -12 -15 -9 -19 4
-3 6 1 10 8 8 6 -3 11 -8 11 -12z m-417 -19 c-5 -8 -2 -9 10 -5 11 4 15 3 11
-4 -4 -5 -12 -8 -18 -6 -7 2 -18 -2 -25 -10 -7 -7 -19 -13 -25 -13 -7 0 2 11
18 25 34 28 39 30 29 13z m94 5 c-10 -2 -28 -2 -40 0 -13 2 -5 4 17 4 22 1 32
-1 23 -4z m295 -10 c-7 -2 -21 -2 -30 0 -10 3 -4 5 12 5 17 0 24 -2 18 -5z
m67 -13 c0 -5 -6 -10 -14 -10 -8 0 -18 5 -21 10 -3 6 3 10 14 10 12 0 21 -4
21 -10z m-47 -17 c-7 -2 -21 -2 -30 0 -10 3 -4 5 12 5 17 0 24 -2 18 -5z"/>
<path d="M2136 2247 c3 -10 9 -15 12 -12 3 3 0 11 -7 18 -10 9 -11 8 -5 -6z"/>
<path d="M2280 1994 c0 -16 14 -31 40 -43 24 -12 24 -11 5 4 -11 8 -26 23 -32
32 -7 9 -13 13 -13 7z"/>
<path d="M2701 1956 c-28 -30 -26 -31 23 -11 33 14 53 34 22 22 -8 -3 -16 -1
-18 4 -2 6 -14 -1 -27 -15z"/>
<path d="M1710 2735 c0 -8 4 -15 10 -15 5 0 7 7 4 15 -4 8 -8 15 -10 15 -2 0
-4 -7 -4 -15z"/>
<path d="M3328 2733 c-4 -8 -3 -24 2 -40 1 -5 3 -14 4 -22 0 -8 7 -16 15 -19
9 -3 11 0 6 9 -5 7 -10 26 -12 43 -3 32 -9 42 -15 29z"/>
<path d="M1705 2700 c-3 -5 -2 -10 4 -10 5 0 13 5 16 10 3 6 2 10 -4 10 -5 0
-13 -4 -16 -10z"/>
<path d="M1700 2670 c-8 -5 -12 -11 -9 -14 2 -3 11 -1 19 4 8 5 12 11 9 14 -2
3 -11 1 -19 -4z"/>
<path d="M3536 2655 c4 -8 8 -15 10 -15 2 0 4 7 4 15 0 8 -4 15 -10 15 -5 0
-7 -7 -4 -15z"/>
<path d="M1680 2630 c0 -5 4 -10 9 -10 6 0 13 5 16 10 3 6 -1 10 -9 10 -9 0
-16 -4 -16 -10z"/>
<path d="M3350 2625 c7 -9 15 -13 17 -11 7 7 -7 26 -19 26 -6 0 -6 -6 2 -15z"/>
<path d="M2154 2583 c13 -73 26 -93 58 -93 28 0 30 -2 25 -29 -3 -15 -1 -33 6
-40 8 -8 91 -11 278 -11 235 0 268 2 280 16 8 9 12 27 11 40 -3 21 1 24 27 24
31 0 39 15 56 98 l7 32 -377 0 -377 0 6 -37z m301 -23 c-4 -13 3 -15 48 -10
28 3 72 2 97 -2 35 -7 55 -4 92 12 26 11 55 20 65 19 10 -1 3 -6 -15 -12 -18
-5 -31 -15 -29 -21 4 -12 10 -12 67 -2 30 6 27 3 -21 -19 -34 -16 -62 -37 -73
-55 -11 -20 -25 -30 -39 -29 -17 1 -18 2 -4 6 9 2 17 9 17 15 0 8 -30 9 -95 4
-52 -3 -95 -4 -95 -1 0 13 65 35 107 35 38 0 44 2 34 13 -8 8 -39 11 -94 10
-76 -3 -84 -5 -104 -30 l-23 -28 38 -6 37 -6 -42 -2 c-51 -1 -59 10 -37 46 10
15 12 23 5 17 -10 -9 -19 -8 -39 2 -15 8 -32 14 -38 14 -6 0 -19 9 -29 20 -22
24 -17 25 21 5 39 -20 67 -19 88 4 21 23 68 24 61 1z m-93 -82 c-15 -15 -16
-32 -2 -23 6 3 10 2 10 -4 0 -6 47 -12 123 -14 l122 -3 -132 -2 c-98 -1 -133
1 -133 10 0 9 -3 9 -12 0 -13 -13 -48 -16 -48 -4 0 4 12 21 26 37 l26 30 -22
-32 c-17 -26 -18 -33 -7 -33 19 0 50 47 41 63 -5 9 -4 9 7 0 10 -10 10 -16 1
-25z"/>
<path d="M2416 2553 c-6 -14 -5 -15 5 -6 7 7 10 15 7 18 -3 3 -9 -2 -12 -12z"/>
<path d="M2670 2526 c0 -2 7 -6 15 -10 8 -3 15 -1 15 4 0 6 -7 10 -15 10 -8 0
-15 -2 -15 -4z"/>
<path d="M2640 2490 c0 -5 5 -10 10 -10 6 0 10 5 10 10 0 6 -4 10 -10 10 -5 0
-10 -4 -10 -10z"/>
<path d="M2520 2480 c-10 -7 -1 -8 30 -4 56 8 64 14 19 14 -19 0 -41 -5 -49
-10z"/>
<path d="M1665 2600 c-3 -5 1 -10 9 -10 9 0 16 5 16 10 0 6 -4 10 -9 10 -6 0
-13 -4 -16 -10z"/>
<path d="M1555 2590 c-8 -13 22 -50 42 -50 20 0 16 14 -11 39 -16 15 -26 19
-31 11z"/>
<path d="M3365 2590 c3 -5 11 -10 16 -10 6 0 7 5 4 10 -3 6 -11 10 -16 10 -6
0 -7 -4 -4 -10z"/>
<path d="M3469 2573 c-8 -9 -27 -22 -44 -29 l-30 -13 30 1 c29 1 75 32 75 50
0 13 -17 9 -31 -9z"/>
<path d="M1645 2570 c-3 -5 1 -10 9 -10 9 0 16 5 16 10 0 6 -4 10 -9 10 -6 0
-13 -4 -16 -10z"/>
<path d="M3380 2566 c0 -2 7 -6 15 -10 8 -3 15 -1 15 4 0 6 -7 10 -15 10 -8 0
-15 -2 -15 -4z"/>
<path d="M1620 2540 c0 -5 4 -10 9 -10 6 0 13 5 16 10 3 6 -1 10 -9 10 -9 0
-16 -4 -16 -10z"/>
<path d="M1590 2510 c0 -5 4 -10 9 -10 6 0 13 5 16 10 3 6 -1 10 -9 10 -9 0
-16 -4 -16 -10z"/>
<path d="M3430 2510 c0 -6 7 -10 15 -10 8 0 15 2 15 4 0 2 -7 6 -15 10 -8 3
-15 1 -15 -4z"/>
<path d="M1565 2480 c-3 -5 1 -10 9 -10 8 0 18 5 21 10 3 6 -1 10 -9 10 -8 0
-18 -4 -21 -10z"/>
<path d="M3458 2473 c7 -3 16 -2 19 1 4 3 -2 6 -13 5 -11 0 -14 -3 -6 -6z"/>
<path d="M1535 2450 c-8 -13 5 -13 25 0 13 8 13 10 -2 10 -9 0 -20 -4 -23 -10z"/>
<path d="M3480 2450 c0 -6 7 -10 15 -10 8 0 15 2 15 4 0 2 -7 6 -15 10 -8 3
-15 1 -15 -4z"/>
<path d="M1390 2431 c0 -5 16 -23 36 -39 39 -32 38 -47 -5 -86 -12 -11 -21
-26 -21 -35 0 -20 66 43 87 83 13 25 13 28 0 23 -9 -3 -28 8 -48 29 -33 34
-49 42 -49 25z"/>
<path d="M1518 2423 c7 -3 16 -2 19 1 4 3 -2 6 -13 5 -11 0 -14 -3 -6 -6z"/>
<path d="M3505 2420 c3 -5 13 -10 21 -10 8 0 12 5 9 10 -3 6 -13 10 -21 10 -8
0 -12 -4 -9 -10z"/>
<path d="M3603 2395 c-38 -32 -41 -33 -46 -15 -3 11 -10 20 -15 20 -15 0 20
-62 61 -111 24 -28 37 -37 37 -26 0 9 -13 31 -29 49 l-30 33 36 37 c48 49 38
58 -14 13z"/>
<path d="M1495 2400 c-3 -5 -2 -10 4 -10 5 0 13 5 16 10 3 6 2 10 -4 10 -5 0
-13 -4 -16 -10z"/>
<path d="M2277 2378 c4 -13 7 -49 7 -80 -1 -32 2 -56 6 -53 15 9 22 -15 9 -31
-19 -23 3 -60 50 -83 35 -18 40 -19 45 -4 6 15 8 14 19 -2 17 -22 52 -16 52
10 0 13 7 20 21 21 12 1 26 4 32 8 6 3 13 2 16 -3 3 -5 15 -7 25 -4 15 4 20
-1 23 -18 4 -30 37 -37 55 -13 7 10 13 12 13 6 0 -32 80 3 98 43 10 21 10 31
1 41 -8 10 -8 18 -1 27 5 6 12 45 14 85 l4 72 -249 0 -248 0 8 -22z m135 -10
c8 -7 20 -22 26 -33 6 -11 12 -15 12 -8 0 22 43 53 73 53 17 0 37 -9 49 -23
l21 -23 23 23 c27 27 64 30 93 6 22 -19 24 -35 15 -120 l-6 -53 -49 0 -49 0 0
38 c0 21 -5 43 -12 50 -20 20 -5 20 27 1 21 -13 25 -19 13 -19 -11 0 -18 -7
-18 -17 0 -19 17 -51 22 -43 21 32 27 54 22 75 -4 16 1 34 15 54 l22 30 -25 7
c-13 3 -34 3 -46 -1 -27 -8 -60 -83 -60 -134 l0 -37 -56 -2 -55 -1 2 32 c2 19
-4 43 -14 57 -19 27 -20 25 -21 -40 l-1 -45 -52 -3 -53 -3 0 40 c0 23 -4 41
-10 41 -5 0 -10 4 -10 9 0 5 11 8 25 6 14 -1 25 2 25 8 0 5 8 15 17 22 9 7 18
22 20 34 2 17 -2 21 -22 21 -14 0 -34 -9 -45 -20 -11 -11 -20 -16 -20 -11 0
15 42 41 65 41 12 0 28 -6 37 -12z"/>
<path d="M2477 2352 c-9 -10 -17 -28 -17 -39 0 -22 32 -42 38 -24 2 6 8 9 13
5 13 -8 39 21 41 48 3 19 -2 24 -28 26 -20 2 -36 -3 -47 -16z"/>
<path d="M2352 2271 c-9 -5 -12 -21 -9 -42 4 -31 5 -32 12 -11 7 21 8 21 21 5
10 -13 13 -14 9 -3 -3 9 4 26 15 38 l21 22 -28 0 c-15 0 -34 -4 -41 -9z"/>
<path d="M2486 2254 c-9 -23 -7 -44 4 -44 9 0 60 47 60 55 0 13 -59 3 -64 -11z"/>
<path d="M1470 2306 c0 -8 5 -18 10 -21 6 -3 10 1 10 9 0 8 -4 18 -10 21 -5 3
-10 -1 -10 -9z"/>
<path d="M3560 2295 c0 -8 2 -15 4 -15 2 0 6 7 10 15 3 8 1 15 -4 15 -6 0 -10
-7 -10 -15z"/>
<path d="M1614 2277 c-33 -8 -46 -19 -68 -54 -24 -41 -26 -50 -20 -110 6 -53
4 -64 -6 -58 -8 5 -11 3 -8 -6 3 -8 11 -13 17 -11 8 1 11 -19 9 -68 -1 -38 -4
-67 -7 -65 -2 3 -10 0 -17 -6 -15 -12 -19 -6 -27 44 -3 18 0 26 7 24 6 -2 11
-18 11 -35 0 -39 12 -28 20 18 3 21 2 30 -3 22 -6 -9 -11 8 -16 49 -9 87 -8
101 5 93 7 -4 10 -1 7 7 -3 8 -11 13 -17 12 -6 -2 -11 4 -11 12 0 8 -2 15 -5
15 -10 0 -80 -83 -92 -108 -18 -38 -6 -139 18 -163 10 -10 19 -28 19 -39 0
-24 4 -24 61 -5 27 9 63 34 89 60 24 25 48 45 54 45 5 0 38 27 72 60 63 61
130 99 172 100 15 0 22 6 22 19 0 25 -103 61 -173 61 -47 0 -48 1 -46 28 3 30
-9 73 -19 71 -4 -1 -25 -7 -48 -12z"/>
<path d="M3365 2256 c-3 -17 -4 -40 -2 -51 2 -18 -5 -21 -68 -26 -96 -8 -155
-27 -155 -51 0 -10 7 -18 18 -18 35 -1 108 -43 169 -98 126 -115 160 -142 204
-161 24 -11 49 -21 55 -21 20 0 61 77 68 128 8 64 -7 103 -63 162 -22 24 -41
48 -41 54 0 6 -5 5 -12 -2 -10 -10 -10 -15 1 -21 15 -10 8 -61 -9 -61 -6 0
-10 -8 -10 -17 0 -16 2 -16 10 -3 7 10 8 -6 4 -53 -6 -57 -5 -67 8 -62 11 5
14 -1 10 -24 -2 -17 -8 -28 -13 -25 -5 3 -9 11 -8 17 1 7 -1 19 -4 27 -3 8 -8
26 -10 40 -3 14 -3 -6 -1 -43 2 -37 0 -66 -4 -63 -14 8 -14 147 -1 144 6 -2
14 3 17 11 3 8 0 11 -7 7 -7 -5 -11 3 -11 22 0 17 6 32 15 36 8 3 15 10 15 16
0 6 -5 8 -11 4 -7 -4 -10 4 -8 23 2 17 -5 41 -17 58 -11 17 -24 38 -27 48 -4
10 -11 16 -16 12 -5 -3 -28 1 -50 9 l-41 14 -5 -32z"/>
<path d="M1480 2255 c0 -8 4 -15 10 -15 5 0 7 7 4 15 -4 8 -8 15 -10 15 -2 0
-4 -7 -4 -15z"/>
<path d="M3557 2263 c-4 -3 -7 -13 -7 -22 1 -13 3 -13 11 2 11 19 8 33 -4 20z"/>
<path d="M1480 2221 c0 -5 5 -13 10 -16 6 -3 10 -2 10 4 0 5 -4 13 -10 16 -5
3 -10 2 -10 -4z"/>
<path d="M3926 2217 c3 -10 9 -15 12 -12 3 3 0 11 -7 18 -10 9 -11 8 -5 -6z"/>
<path d="M3547 2213 c-4 -3 -7 -11 -7 -17 0 -6 5 -5 12 2 6 6 9 14 7 17 -3 3
-9 2 -12 -2z"/>
<path d="M1490 2181 c0 -5 5 -13 10 -16 6 -3 10 -2 10 4 0 5 -4 13 -10 16 -5
3 -10 2 -10 -4z"/>
<path d="M1511 2084 c0 -11 3 -14 6 -6 3 7 2 16 -1 19 -3 4 -6 -2 -5 -13z"/>
<path d="M3057 2047 c-38 -30 -49 -103 -21 -132 19 -18 19 -18 22 6 8 55 57
67 92 22 58 -73 -19 -191 -127 -194 -28 -1 -28 -1 7 -16 20 -9 50 -13 71 -10
46 6 144 72 187 125 36 46 38 52 17 52 -8 0 -15 -4 -15 -9 0 -15 -31 -21 -52
-10 -15 8 -17 14 -9 22 8 8 6 15 -5 28 -12 14 -13 21 -3 37 44 71 -92 137
-164 79z"/>
<path d="M1521 2004 c0 -11 3 -14 6 -6 3 7 2 16 -1 19 -3 4 -6 -2 -5 -13z"/>
<path d="M3400 1900 c-12 -8 -12 -10 3 -16 10 -3 21 -4 24 0 4 3 1 6 -6 6 -7
0 -9 5 -6 10 8 12 4 12 -15 0z"/>
<path d="M3364 1879 c-3 -6 -2 -15 3 -20 5 -5 9 -1 9 11 0 23 -2 24 -12 9z"/>
<path d="M1303 1854 c-7 -18 20 -44 45 -44 7 0 10 -4 7 -10 -3 -5 1 -10 10
-10 9 0 13 -4 10 -10 -9 -14 48 -13 63 2 18 18 14 -3 -4 -23 -15 -17 -14 -17
22 -8 22 6 49 20 62 32 l22 20 0 -21 c0 -26 4 -27 41 -5 36 21 36 33 4 63 -25
23 -25 23 -63 6 -74 -36 -210 -30 -196 9 3 8 1 15 -5 15 -7 0 -14 -7 -18 -16z"/>
<path d="M3343 1853 c4 -6 2 -13 -4 -15 -7 -2 -4 -10 7 -18 10 -8 15 -10 11
-3 -4 6 -2 13 4 15 7 2 4 10 -7 18 -10 8 -15 10 -11 3z"/>
<path d="M1664 1832 c3 -5 0 -13 -6 -15 -9 -4 -10 -6 -1 -6 17 -1 25 16 12 25
-7 4 -9 3 -5 -4z"/>
<path d="M3301 1814 c-1 -6 5 -17 12 -23 10 -8 14 -7 14 4 0 8 -4 12 -8 9 -4
-2 -10 2 -12 8 -4 8 -6 9 -6 2z"/>
<path d="M1699 1793 c-13 -16 -12 -17 4 -4 9 7 17 15 17 17 0 8 -8 3 -21 -13z"/>
<path d="M2255 1800 c3 -5 29 -10 56 -10 29 0 48 -4 44 -9 -3 -5 -21 -7 -40
-4 -21 3 -35 1 -35 -5 0 -19 119 -120 155 -132 20 -7 67 -10 105 -8 80 4 142
37 198 106 l35 42 -33 0 c-28 0 -31 -2 -20 -16 11 -13 10 -16 -8 -21 -11 -3
-22 -15 -24 -27 -4 -30 -58 -37 -58 -7 0 26 -31 28 -53 3 -12 -14 -14 -21 -6
-29 24 -24 2 -41 -51 -41 -54 0 -73 16 -51 42 10 11 7 18 -11 30 -30 21 -59
21 -51 0 3 -9 0 -20 -8 -24 -18 -12 -49 7 -49 29 0 10 -9 21 -20 24 -21 5 -28
27 -9 27 5 0 7 -5 3 -12 -7 -11 8 -9 51 8 19 7 19 7 3 -13 -10 -11 -18 -27
-18 -35 0 -20 27 -31 36 -16 4 7 2 14 -4 16 -21 7 -2 22 27 22 17 0 38 -11 56
-30 22 -23 25 -30 12 -30 -9 0 -17 -7 -17 -16 0 -26 35 -12 38 16 3 32 -45 91
-92 114 -38 18 -172 23 -161 6z"/>
<path d="M2625 1798 c-32 -17 -76 -61 -91 -90 -16 -31 -9 -60 14 -56 22 4 27
28 6 28 -15 0 -13 5 11 30 29 30 77 41 90 20 3 -5 1 -10 -4 -10 -6 0 -11 -4
-11 -10 0 -5 9 -10 20 -10 25 0 26 26 3 52 -17 19 -5 26 14 7 6 -6 19 -9 29
-7 16 3 14 7 -11 21 l-30 16 62 1 c34 0 65 5 68 10 9 14 -144 12 -170 -2z"/>
<path d="M3270 1783 c0 -6 6 -16 14 -22 18 -15 34 5 17 22 -9 9 -11 7 -6 -8 7
-20 6 -20 -9 -1 -9 11 -16 15 -16 9z"/>
<path d="M1729 1763 c-10 -11 -10 -14 -1 -9 7 4 12 2 12 -4 0 -6 5 -8 11 -4 8
5 8 9 -1 14 -9 6 -9 9 1 13 8 3 9 6 3 6 -6 1 -18 -7 -25 -16z"/>
<path d="M3253 1763 c4 -6 1 -13 -5 -16 -10 -3 -10 -8 1 -18 12 -12 13 -12 6
0 -6 11 -4 13 8 8 22 -8 22 7 0 24 -9 8 -14 9 -10 2z"/>
<path d="M3206 1732 c-2 -4 2 -15 9 -25 7 -10 16 -14 19 -9 3 6 -1 13 -10 16
-8 3 -12 10 -9 16 3 5 4 10 1 10 -3 0 -7 -3 -10 -8z"/>
<path d="M2253 1715 c-3 -9 -3 -18 -1 -21 3 -3 8 4 11 16 6 23 -1 27 -10 5z"/>
<path d="M2757 1713 c-9 -8 12 -33 27 -33 6 0 2 6 -9 12 -19 11 -19 11 0 19
15 6 16 8 4 8 -9 1 -19 -2 -22 -6z"/>
<path d="M3176 1711 c-4 -6 -3 -18 2 -27 8 -15 10 -14 16 2 8 20 -8 42 -18 25z"/>
<path d="M1833 1695 c-3 -9 -3 -18 -1 -21 3 -3 8 4 11 16 6 23 -1 27 -10 5z"/>
<path d="M3026 1695 c-9 -26 -7 -32 5 -12 6 10 9 21 6 23 -2 3 -7 -2 -11 -11z"/>
<path d="M1855 1689 c-4 -6 -5 -12 -2 -15 2 -3 7 2 10 11 7 17 1 20 -8 4z"/>
<path d="M3046 1685 c-9 -26 -7 -32 5 -12 6 10 9 21 6 23 -2 3 -7 -2 -11 -11z"/>
<path d="M3130 1693 c0 -5 5 -15 10 -23 7 -12 9 -10 7 8 -1 19 -17 33 -17 15z"/>
<path d="M1890 1671 c0 -14 6 -21 18 -20 10 0 12 3 4 6 -6 2 -10 9 -7 13 3 5
1 11 -5 15 -5 3 -10 -3 -10 -14z"/>
<path d="M3066 1675 c-9 -26 -7 -32 5 -12 6 10 9 21 6 23 -2 3 -7 -2 -11 -11z"/>
<path d="M3091 1673 c-1 -14 5 -23 14 -23 9 0 15 9 14 23 0 21 -1 21 -8 2 l-8
-20 -5 20 c-5 18 -6 18 -7 -2z"/>
<path d="M2712 1671 c-10 -6 -10 -10 0 -19 8 -6 19 -7 26 -3 10 6 10 10 0 19
-8 6 -19 7 -26 3z"/>
<path d="M2324 1649 c-3 -6 -1 -16 5 -22 9 -9 14 -8 21 3 5 8 10 18 10 23 0
11 -28 8 -36 -4z"/>
<path d="M2660 1635 c0 -20 16 -34 29 -26 9 6 10 11 2 15 -6 4 -11 4 -11 -1 0
-4 -5 -1 -10 7 -5 8 -10 11 -10 5z"/>
<path d="M2381 1611 c-8 -14 -7 -20 3 -24 9 -4 13 0 11 11 -1 9 3 20 9 24 8 6
7 8 -1 8 -7 0 -17 -9 -22 -19z"/>
<path d="M2440 1597 c0 -8 7 -18 16 -21 11 -4 14 -1 12 11 -4 21 -28 30 -28
10z"/>
<path d="M2507 1580 c3 -11 7 -20 8 -20 1 0 5 9 8 20 3 12 0 20 -8 20 -8 0
-11 -8 -8 -20z"/>
<path d="M2567 1583 c3 -7 6 -13 8 -13 2 0 5 6 8 13 3 8 -1 14 -8 14 -7 0 -11
-6 -8 -14z"/>
<path d="M1298 4005 c-42 -39 -48 -51 -19 -35 11 5 22 10 25 10 8 0 36 -57 56
-116 l18 -52 -36 15 c-108 45 -136 67 -120 96 8 16 2 14 -29 -11 -22 -17 -46
-38 -53 -47 -11 -13 -9 -15 13 -15 14 0 76 -23 137 -52 60 -28 113 -49 116
-45 3 3 -11 56 -31 118 -20 63 -35 126 -33 141 6 36 1 35 -44 -7z"/>
<path d="M3836 3902 c6 -32 3 -38 -61 -99 -58 -55 -71 -64 -94 -58 -21 5 -10
-10 53 -74 l79 -80 28 20 c42 30 43 38 4 26 -31 -9 -39 -8 -63 10 -15 11 -28
30 -30 42 -4 24 32 71 53 71 17 0 43 -31 47 -57 3 -21 4 -21 36 8 l32 29 -28
0 c-28 0 -62 26 -62 47 0 6 15 22 34 36 31 25 35 25 49 9 27 -32 36 -57 26
-75 -6 -9 -6 -17 -2 -17 13 1 43 26 43 36 0 5 -34 43 -75 84 -73 73 -75 74
-69 42z"/>
<path d="M995 3705 c-25 -30 -42 -55 -36 -55 5 0 13 5 16 10 12 20 36 9 106
-51 64 -56 70 -64 65 -90 -3 -16 -4 -29 -2 -29 2 0 36 38 75 84 l71 84 -21 36
c-11 20 -23 36 -25 36 -2 0 -1 -18 2 -39 5 -31 2 -48 -16 -75 -12 -20 -27 -36
-33 -36 -7 0 -45 30 -85 67 -62 55 -72 70 -68 89 4 13 5 24 2 24 -2 0 -25 -25
-51 -55z"/>
<path d="M899 3579 c-9 -13 -21 -34 -28 -47 -12 -22 -11 -23 8 -13 18 10 24 6
51 -30 17 -23 28 -44 26 -47 -3 -2 -28 -1 -55 3 -43 6 -51 10 -51 28 0 20 -2
19 -21 -8 -11 -16 -27 -43 -35 -58 -15 -27 -14 -28 5 -18 25 14 105 14 154 0
50 -14 77 -41 70 -71 -2 -13 14 5 36 39 46 69 51 85 20 57 -20 -18 -21 -18
-57 1 -42 23 -92 99 -101 152 l-6 37 -16 -25z"/>
<path d="M4147 3546 c4 -20 -5 -29 -59 -61 -82 -50 -108 -73 -108 -101 0 -63
55 -134 105 -134 17 0 64 16 105 36 59 28 79 33 93 25 9 -6 17 -9 17 -5 0 7
-51 94 -55 94 -2 0 -3 -12 -2 -27 2 -22 -7 -32 -58 -64 -84 -53 -108 -57 -139
-25 -18 17 -26 36 -26 60 0 30 6 40 38 64 22 15 58 36 80 46 41 18 43 18 62 1
28 -25 25 -14 -11 50 -35 62 -48 75 -42 41z"/>
<path d="M731 3281 c-27 -37 -28 -102 -3 -124 27 -25 64 -21 108 13 64 48 115
36 100 -24 -6 -24 -38 -42 -86 -49 -22 -3 -20 -5 14 -15 45 -13 58 -7 82 39
21 42 18 95 -8 119 -30 28 -48 25 -108 -16 -37 -25 -59 -34 -75 -30 -54 14
-37 73 23 78 l37 3 -32 17 -32 18 -20 -29z"/>
<path d="M4324 3202 c-10 -25 -23 -33 -90 -56 -93 -31 -109 -32 -124 -8 -9 14
-10 12 -5 -12 3 -16 12 -43 20 -60 11 -26 13 -28 14 -9 1 12 11 29 23 37 26
19 117 50 124 43 3 -2 -22 -55 -56 -116 -33 -61 -58 -116 -55 -121 3 -4 53 8
112 27 85 29 110 34 125 24 22 -14 22 -16 1 45 -17 48 -17 48 -23 19 -5 -26
-13 -33 -69 -53 -35 -12 -68 -21 -72 -20 -4 2 19 50 52 106 60 103 60 104 47
143 l-13 40 -11 -29z"/>
<path d="M636 3034 c-4 -21 -10 -48 -13 -59 -4 -15 0 -13 18 9 l24 27 73 -16
c88 -20 99 -10 -145 -139 0 -1 -5 -19 -9 -41 l-7 -40 22 19 c21 19 23 19 99 2
95 -23 112 -31 112 -57 0 -33 17 -13 24 28 4 21 9 47 12 58 4 18 3 18 -12 -2
-9 -13 -26 -23 -39 -23 -33 0 -135 22 -135 29 0 3 52 35 115 70 63 35 115 67
115 72 0 9 -29 18 -145 44 -46 10 -75 23 -86 37 -16 20 -16 20 -23 -18z"/>
<path d="M4430 2841 c0 -27 -4 -28 -106 -45 -88 -15 -89 -15 -108 7 -19 22
-19 22 -11 -38 7 -64 24 -109 25 -68 0 30 20 39 119 54 83 13 83 13 103 -12
11 -13 18 -17 15 -8 -3 9 -8 41 -12 72 -7 53 -25 81 -25 38z"/>
<path d="M560 2644 c1 -58 1 -59 16 -31 14 26 18 27 89 27 41 0 75 -3 74 -7 0
-5 -43 -43 -95 -86 -90 -76 -94 -81 -94 -119 l0 -41 26 28 c23 25 30 27 77 21
29 -3 69 -6 90 -6 30 0 40 -4 44 -20 10 -39 23 -19 23 36 l0 57 -25 -27 c-20
-22 -32 -26 -77 -26 -91 0 -90 9 16 101 53 46 96 86 96 90 0 10 -68 19 -147
19 -61 0 -75 3 -93 22 l-20 22 0 -60z"/>
<path d="M4466 2655 c-3 -8 -60 -42 -127 -75 -67 -34 -118 -65 -113 -69 5 -5
54 -26 109 -47 54 -22 112 -50 127 -62 l28 -24 -1 39 c0 21 -4 47 -8 57 -7 19
-8 19 -13 -2 -4 -13 -14 -22 -25 -22 -20 0 -124 33 -145 46 -6 4 17 19 53 36
89 40 105 43 118 21 8 -14 10 -3 11 50 0 67 -3 80 -14 52z"/>
<path d="M4231 2353 c-6 -59 -22 -173 -27 -191 -4 -19 2 -25 32 -38 45 -19 55
-11 21 17 -21 16 -27 29 -27 59 0 48 15 60 68 53 42 -6 43 -6 37 -37 -4 -17
-17 -39 -28 -48 -22 -18 -22 -18 10 -18 17 0 39 -3 48 -7 16 -6 16 -5 1 19
-24 37 -12 78 23 78 14 0 36 -3 47 -6 19 -5 21 -10 13 -42 -7 -35 -30 -61 -53
-63 -6 0 2 -5 19 -10 16 -4 32 -5 36 -1 9 10 32 202 25 210 -3 3 -6 -2 -6 -11
0 -27 -27 -34 -107 -24 -96 11 -120 20 -126 49 -2 13 -5 18 -6 11z"/>
<path d="M730 2330 c0 -5 9 -10 19 -10 24 0 61 -45 61 -75 0 -29 -16 -41 -62
-50 -34 -7 -36 -5 -43 25 -5 23 -2 37 12 52 18 21 18 21 -16 15 -18 -4 -40 -7
-48 -7 -11 0 -10 -5 5 -17 12 -10 23 -31 24 -48 3 -28 1 -30 -40 -35 -23 -4
-44 -4 -47 -2 -3 3 -5 25 -5 48 0 30 5 46 18 53 14 9 11 10 -16 11 -28 0 -32
-3 -28 -22 3 -13 8 -45 11 -73 3 -27 9 -65 12 -83 5 -33 6 -33 17 -10 9 18 25
25 76 34 105 19 138 17 145 -7 14 -42 16 -9 5 77 -15 121 -21 134 -65 134 -19
0 -35 -4 -35 -10z"/>
<path d="M4176 2025 c-10 -33 -21 -67 -23 -75 -3 -8 4 -4 15 9 19 23 22 24 65
11 40 -11 45 -15 37 -30 -5 -10 -26 -21 -46 -24 -61 -12 -86 -29 -105 -71 -10
-22 -16 -41 -15 -43 2 -2 16 8 31 23 23 20 125 62 130 52 0 -1 6 -14 13 -29
15 -36 56 -47 82 -23 21 19 53 97 64 155 5 28 5 31 -4 18 -14 -23 -37 -23
-124 3 -81 24 -93 32 -98 62 -3 15 -10 3 -22 -38z m189 -95 c28 -11 29 -13 15
-41 -12 -22 -59 -26 -78 -7 -7 7 -12 25 -12 41 0 31 9 32 75 7z"/>
<path d="M645 2000 c-20 -23 -18 -59 11 -155 15 -51 18 -56 24 -35 5 21 19 29
85 52 96 32 121 34 134 11 6 -11 11 -13 11 -5 0 21 -34 132 -42 132 -3 0 -4
-8 -2 -17 7 -31 -10 -42 -106 -73 -99 -30 -116 -28 -104 15 13 44 61 58 102
29 31 -21 28 -11 -9 31 -36 40 -76 46 -104 15z"/>
<path d="M4072 1736 c-46 -51 -56 -112 -22 -146 28 -28 55 -25 111 11 52 33
75 34 93 7 17 -27 -5 -52 -48 -58 l-38 -5 30 -18 c30 -17 30 -17 56 14 48 56
28 139 -34 139 -12 0 -47 -14 -76 -31 -43 -24 -57 -28 -74 -19 -25 13 -26 51
-2 73 10 9 35 20 57 25 l38 8 -36 11 c-32 9 -38 8 -55 -11z"/>
<path d="M934 1665 c-18 -13 -17 -14 18 -15 27 0 42 -7 57 -26 30 -38 26 -59
-13 -83 -43 -27 -43 -27 -61 10 -13 24 -14 34 -4 45 20 24 6 24 -36 -2 -22
-13 -33 -24 -23 -24 16 0 58 -44 58 -61 0 -4 -16 -17 -36 -30 l-37 -22 -18 24
c-21 27 -24 52 -9 79 9 18 8 18 -20 9 -16 -6 -30 -13 -30 -16 0 -9 105 -183
110 -183 3 0 6 12 5 26 0 21 12 33 70 68 90 55 101 58 120 39 32 -31 22 -6
-32 85 -59 97 -77 109 -119 77z"/>
<path d="M3941 1513 c-37 -52 -48 -84 -19 -55 20 20 35 14 113 -38 57 -38 74
-56 77 -77 3 -25 5 -23 41 31 21 32 37 60 34 62 -2 3 -10 -2 -17 -11 -19 -22
-28 -19 -110 38 -62 44 -75 57 -75 80 1 15 0 27 -1 27 -1 0 -21 -26 -43 -57z"/>
<path d="M1126 1433 c5 -24 -2 -34 -53 -78 -92 -79 -89 -78 -112 -65 -32 17
-24 0 25 -55 40 -44 44 -47 39 -23 -6 22 -1 32 20 53 16 14 31 25 35 25 4 0
25 -22 48 -49 l41 -48 -22 -20 c-35 -31 -45 -35 -68 -22 l-22 11 21 -28 c11
-16 35 -42 52 -59 29 -26 31 -27 20 -6 -10 20 -8 27 17 53 15 16 50 48 76 70
43 37 51 40 73 29 31 -14 25 -1 -28 58 -41 45 -55 52 -38 21 9 -16 5 -26 -25
-57 l-35 -38 -45 50 c-25 28 -45 53 -45 56 0 4 16 19 36 34 31 24 39 26 61 16
22 -10 20 -5 -17 39 -53 63 -61 68 -54 33z"/>
<path d="M3796 1328 c-43 -49 -55 -76 -21 -48 18 15 34 6 122 -73 l61 -55 -23
-22 c-18 -17 -32 -21 -57 -18 l-32 5 34 -29 c31 -25 35 -26 41 -11 7 19 115
143 136 156 10 6 8 15 -9 37 -26 36 -42 39 -27 6 9 -18 7 -30 -5 -55 -9 -17
-19 -31 -22 -31 -3 0 -40 30 -81 67 -66 60 -74 70 -69 95 3 15 4 28 2 28 -3 0
-25 -23 -50 -52z"/>
<path d="M3593 1137 c-57 -46 -67 -63 -27 -45 25 11 29 10 55 -21 35 -42 60
-161 39 -186 -23 -27 -5 -26 33 2 37 29 48 47 22 37 -16 -7 -45 48 -45 86 0
20 1 20 50 -5 37 -19 48 -29 43 -41 -5 -14 -3 -14 13 -5 10 6 35 24 54 40 l35
30 -35 -4 c-26 -4 -52 3 -99 28 -74 37 -103 75 -83 107 19 30 3 23 -55 -23z"/>
<path d="M1415 1140 c9 -10 15 -25 12 -32 -8 -21 -117 -158 -126 -158 -17 0
-40 37 -43 70 l-3 35 -22 -37 c-12 -21 -17 -38 -11 -38 6 0 50 -31 98 -69 l88
-69 28 29 c30 31 28 35 -9 18 -19 -9 -31 -7 -56 5 l-32 17 45 57 c100 126 91
118 120 104 38 -17 26 -2 -37 47 -57 44 -82 54 -52 21z"/>
<path d="M1670 816 c-18 -22 -5 -46 25 -46 23 0 26 4 23 27 -3 32 -29 41 -48
19z"/>
<path d="M3290 815 c-10 -12 -10 -18 0 -30 26 -32 68 -8 54 30 -4 8 -14 15
-24 15 -10 0 -23 -7 -30 -15z"/>
<path d="M2948 808 c-4 -11 -28 -21 -65 -28 l-59 -12 4 -66 c2 -37 6 -68 7
-70 2 -2 21 2 43 8 28 9 45 9 59 1 26 -13 37 -55 23 -81 -14 -27 -60 -27 -67
0 -6 24 -41 27 -50 4 -8 -21 22 -44 55 -44 101 0 151 117 67 157 -29 14 -41
14 -72 5 -43 -13 -39 -15 -48 20 -6 25 -4 27 50 39 60 13 69 22 63 61 -3 19
-4 20 -10 6z"/>
<path d="M2109 773 l24 -19 -18 -80 c-22 -99 -30 -114 -61 -114 -47 0 -15 -17
56 -29 68 -13 104 -10 61 4 -30 9 -30 34 -1 158 9 42 15 79 11 81 -3 2 -26 7
-51 11 l-45 7 24 -19z"/>
<path d="M2706 762 c-3 -5 -32 -12 -65 -16 l-59 -7 -4 -69 -3 -69 43 6 c51 7
82 -15 82 -57 0 -51 -55 -68 -75 -22 -11 25 -43 30 -51 7 -18 -47 93 -65 140
-22 41 36 44 71 7 108 -29 29 -36 31 -81 27 -41 -4 -50 -2 -50 11 0 31 18 44
69 49 44 4 52 8 57 29 7 25 0 41 -10 25z"/>
<path d="M2330 730 c-27 -27 -25 -56 5 -85 l24 -25 -29 -15 c-34 -17 -45 -46
-30 -74 15 -29 42 -41 92 -41 81 0 113 58 61 112 l-26 28 26 20 c55 44 21 100
-60 100 -30 0 -49 -6 -63 -20z m88 -2 c14 -14 16 -57 2 -78 -7 -12 -13 -11
-34 10 -15 13 -26 31 -26 40 0 18 19 40 35 40 6 0 16 -5 23 -12z m-9 -144 c25
-31 27 -57 6 -74 -37 -30 -86 22 -66 73 13 34 34 34 60 1z"/>
</g>
</svg>
